<?xml version="1.0" encoding="UTF-8" standalone="no"?>
<!DOCTYPE svg PUBLIC "-//W3C//DTD SVG 1.1//EN" "http://www.w3.org/Graphics/SVG/1.1/DTD/svg11.dtd">
<svg xmlns="http://www.w3.org/2000/svg" xmlns:serif="http://www.serif.com/" xmlns:xlink="http://www.w3.org/1999/xlink"
    width="100%" height="100%"
    style="fill-rule:evenodd;clip-rule:evenodd;stroke-linecap:round;stroke-linejoin:round;stroke-miterlimit:1.5"
    version="1.1" viewBox="0 0 1024 1024" xml:space="preserve">
    <g id="Layer1">
        <path
            d="M290.585,339.363c-0.104,20.541 235,344.326 235,344.326c22.798,-29.574 176.095,-221.339 210.852,-376.622"
            style="fill:none;stroke:#ff22a9;stroke-width:350px" />
    </g>
    <path
        d="M843.8,388.3c0.1,8.9 -0.5,17.8 -1.7,26.6c0.7,-5.3 1.4,-10.6 2.1,-16c-2.9,20.7 -9,40.9 -17.1,60.2c2,-4.8 4,-9.6 6,-14.3c-14.5,34.2 -34.8,65.7 -57.4,95c3.1,-4 6.3,-8.1 9.4,-12.1c-43.4,56.1 -95.4,105.3 -149.8,150.6c-14.3,11.9 -28.8,23.5 -43.5,34.8c4,-3.1 8.1,-6.3 12.1,-9.4c-23.2,17.9 -46.9,35.3 -71.1,52c-14.5,10 -29.2,19.9 -44.1,29.4c-2.5,1.6 -5,3.2 -7.5,4.7c20.2,0 40.4,0 60.6,0c-7.6,-4.6 -15,-9.5 -22.4,-14.4c-19.5,-12.8 -38.6,-26.1 -57.5,-39.8c-14.4,-10.4 -28.7,-21.1 -42.8,-32c4,3.1 8.1,6.3 12.1,9.4c-54.7,-42.3 -107.3,-88 -154.1,-139.1c-13.6,-14.9 -26.8,-30.3 -39.1,-46.3c3.1,4 6.3,8.1 9.4,12.1c-22.6,-29.4 -42.9,-60.8 -57.4,-95c2,4.8 4,9.6 6,14.3c-8.1,-19.3 -14.2,-39.4 -17.1,-60.2c0.7,5.3 1.4,10.6 2.1,16c-2.4,-17.6 -2.2,-35.5 0.1,-53.2c-0.7,5.3 -1.4,10.6 -2.1,16c2.6,-18.8 7.6,-37 15,-54.5c-2,4.8 -4,9.6 -6,14.3c7.2,-16.8 16.4,-32.5 27.5,-47c-3.1,4 -6.3,8.1 -9.4,12.1c11.1,-14.3 23.8,-27.2 38.1,-38.2c-4,3.1 -8.1,6.3 -12.1,9.4c13.2,-10.1 27.6,-18.6 42.9,-25.2c-4.8,2 -9.6,4 -14.3,6c15.1,-6.3 30.9,-10.7 47.1,-12.9c-5.3,0.7 -10.6,1.4 -16,2.1c16.8,-2.2 33.8,-2 50.5,0.3c-5.3,-0.7 -10.6,-1.4 -16,-2.1c16.8,2.4 33.3,6.9 49,13.4c-4.8,-2 -9.6,-4 -14.3,-6c15.7,6.7 30.5,15.3 44,25.8c-4,-3.1 -8.1,-6.3 -12.1,-9.4c13,10.2 24.7,21.9 34.9,34.9c-3.1,-4 -6.3,-8.1 -9.4,-12.1c10.4,13.5 19.1,28.2 25.8,44c-2,-4.8 -4,-9.6 -6,-14.3c6,14.4 10.3,29.3 12.9,44.7c2,4.8 4,9.6 6,14.3c3.8,7 8.9,12.6 15.5,16.8c10.5,8.1 22.8,12.9 36.4,12.9c1.7,0 3.4,0 5.1,0c13.4,0 25.9,-4.8 36.4,-12.9c9.5,-7.3 19.5,-18.9 21.5,-31.2c2.6,-15.4 6.9,-30.4 12.9,-44.7c-2,4.8 -4,9.6 -6,14.3c6.7,-15.7 15.4,-30.4 25.8,-44c-3.1,4 -6.3,8.1 -9.4,12.1c10.2,-13 21.9,-24.7 34.9,-34.9c-4,3.1 -8.1,6.3 -12.1,9.4c13.5,-10.4 28.3,-19.1 44,-25.8c-4.8,2 -9.6,4 -14.3,6c15.7,-6.6 32.1,-11.1 49,-13.4c-5.3,0.7 -10.6,1.4 -16,2.1c16.8,-2.3 33.7,-2.4 50.5,-0.3c-5.3,-0.7 -10.6,-1.4 -16,-2.1c16.2,2.2 32,6.6 47.1,12.9c-4.8,-2 -9.6,-4 -14.3,-6c15.3,6.6 29.7,15 42.9,25.1c-4,-3.1 -8.1,-6.3 -12.1,-9.4c14.3,11.1 27.1,23.9 38.1,38.2c-3.1,-4 -6.3,-8.1 -9.4,-12.1c11.1,14.5 20.3,30.3 27.5,47c-2,-4.8 -4,-9.6 -6,-14.3c7.4,17.4 12.4,35.7 15,54.4c-0.7,-5.3 -1.4,-10.6 -2.1,-16c1.2,9.2 1.8,18.1 1.8,27c0.1,15.4 6.7,31.5 17.6,42.4c10.4,10.4 27.5,18.2 42.4,17.6c15.5,-0.7 31.6,-5.8 42.4,-17.6c10.8,-11.7 17.6,-26.2 17.6,-42.4c-0.2,-49.4 -14.4,-99.7 -40.8,-141.6c-12.7,-20.2 -28.1,-39.6 -45.8,-55.8c-17.7,-16.2 -37.6,-31.1 -59.3,-41.6c-22,-10.7 -45,-19.5 -69.3,-23c-14.6,-2.1 -29.1,-4.1 -43.8,-3.9c-15.2,0.2 -30.5,2.3 -45.5,4.8c-24,4 -47.1,12.9 -68.8,23.7c-21.5,10.7 -41.4,25.5 -58.8,41.8c-11.5,10.7 -21,22.9 -30.5,35.3c-6.5,8.5 -12.5,17.5 -17.6,26.9c-12.8,23.6 -22.7,49.6 -27.1,76.1c19.3,-14.7 38.6,-29.4 57.9,-44c-1.7,0 -3.4,0 -5.1,0c19.3,14.7 38.6,29.4 57.9,44c-2.1,-12.7 -5.4,-25.1 -9.9,-37.2c-6.1,-16.2 -13,-32.3 -22,-47.1c-16.6,-27.4 -38,-50.9 -63.3,-70.5c-25.7,-19.9 -54.2,-34.9 -85.6,-44c-17.1,-5 -35.1,-7.5 -52.8,-9.1c-12.9,-1.2 -25.9,-1.1 -38.7,0.4c-17.6,2.1 -35,4.6 -51.9,10.2c-16.4,5.4 -32.5,12.3 -47.6,20.8c-15,8.5 -28.8,19.1 -42,30.1c-9.7,8.1 -18.6,17.1 -26.7,26.8c-10.9,13.1 -21.4,26.9 -30,41.7c-8.8,15.1 -15.8,31.4 -21.8,47.8c-4.5,12.1 -7.8,24.6 -10,37.3c-3,17.3 -5.1,34.8 -5.1,52.4c0,46.2 14.4,90.3 34.5,131.4c19.9,40.7 47.6,77.6 76.6,112.2c27.6,32.9 58.1,63.4 89.9,92.2c33.3,30.1 68.2,58.2 103.9,85.5c24.7,18.9 50,37.2 75.7,54.7c12.9,8.8 26,17.5 39.3,25.8c0.6,0.4 1.2,0.7 1.7,1.1c17.9,11 42.7,11 60.6,0c13.5,-8.3 26.6,-17.1 39.7,-25.9c36.4,-24.7 71.8,-51.1 106.4,-78.3c39.9,-31.4 78.4,-64.7 114.4,-100.6c39.7,-39.7 76.9,-83.1 106.8,-130.7c15.1,-24.1 27.3,-49.6 37.4,-76.1c9.5,-25 14.6,-51.2 16.7,-77.9c0.4,-5.2 0.6,-10.4 0.5,-15.6c-0.2,-15.5 -6.6,-31.4 -17.6,-42.4c-10.4,-10.4 -27.5,-18.2 -42.4,-17.6c-15.5,0.7 -31.6,5.8 -42.4,17.6c-10.8,11.5 -17.8,26.1 -17.7,42.3Z"
        style="fill: #292929; fill-rule:nonzero" />
</svg>