<svg clip-rule="evenodd" fill-rule="evenodd" stroke-linejoin="round" stroke-miterlimit="2" viewBox="0 0 95 82"
    xmlns="http://www.w3.org/2000/svg">
    <path
        d="m18.57 5-5 8.569-6.07 7.5-1 13.14 7.07 6.5 5.43 8.14 8.139 5.43 6.001 7.721 7.569 6 3.791 9 3.5-2 6-7 7-6.564 6.564-7.157 7.436-6.279 6.134-7.291 6.866-6.709-2-18-4.866-2.431-9.134-7.569-11.5.5-6.5 7.069c-4.43 11.032-8.861 11.206-13.291 0l-7.5-6.069z"
        fill="#ffaafa" />
    <path d="m13.57 13.569h-13.57v27.14h13.57z" fill-rule="nonzero" />
    <path d="m13.57 40.709h13.569v13.57h-13.569z" />
    <g fill-rule="nonzero">
        <path d="m54.279 27.139v-13.57h26.855v-13.569h-27.14v13.569h-13.285v13.57z" />
        <path d="m40.709 13.569v-13.569h-27.139v13.569z" />
        <path d="m81.134 13.569v27.14h13.571v-27.14z" />
    </g>
    <path d="m67.564 40.709h13.57v13.57h-13.57z" />
    <path d="m54 68h-13.5v-13.721h-13.36l-.001 13.721h13.361l.044 13.135h13.569l-.113-13.135h13.564v-13.721h-13.57z"
        fill-rule="nonzero" />
</svg>