<?xml version="1.0" encoding="UTF-8" standalone="no"?>
<!DOCTYPE svg PUBLIC "-//W3C//DTD SVG 1.1//EN" "http://www.w3.org/Graphics/SVG/1.1/DTD/svg11.dtd">
<svg xmlns="http://www.w3.org/2000/svg" xmlns:serif="http://www.serif.com/" xmlns:xlink="http://www.w3.org/1999/xlink" width="100%" height="100%" style="fill-rule:evenodd;clip-rule:evenodd;stroke-linecap:round;stroke-linejoin:round;stroke-miterlimit:1.5" version="1.1" viewBox="0 0 24 24" xml:space="preserve">
    <path d="M12.937,3.544c3.653,0 7.823,4.882 7.823,8.598c0,3.716 -4.88,8.595 -8.533,8.595c-1.302,0 -6.226,0.145 -7.25,-0.516c-0.249,-0.161 0.808,-2.219 0.584,-2.41c-1.448,-1.236 -2.13,-6.041 -2.13,-8.112c0,-3.715 5.852,-6.155 9.506,-6.155Z" style="fill:#fff"/>
    <path d="M10.223,10.733l1.837,1.916l1.757,-1.908" style="fill:none;stroke:#fa72d1;stroke-width:4px"/>
    <path d="M12,8.35c-1.169,-0.599 -2.598,-0.385 -3.54,0.53c-1.162,1.163 -1.162,3.077 0,4.24l2.83,2.88c0.188,0.189 0.443,0.296 0.71,0.296c0.267,0 0.522,-0.107 0.71,-0.296l2.83,-2.83c1.162,-1.163 1.162,-3.077 0,-4.24c-0.93,-0.932 -2.361,-1.166 -3.54,-0.58Zm2.12,3.36l-2.12,2.12l-2.12,-2.12c-0.189,-0.188 -0.296,-0.443 -0.296,-0.71c0,-0.267 0.107,-0.522 0.296,-0.71c0.387,-0.385 1.023,-0.385 1.41,0c0.188,0.189 0.443,0.296 0.71,0.296c0.267,0 0.522,-0.107 0.71,-0.296c0.387,-0.385 1.023,-0.385 1.41,0c0.189,0.188 0.296,0.443 0.296,0.71c0,0.267 -0.107,0.522 -0.296,0.71Zm-2.12,-9.71c-5.486,0 -10,4.514 -10,10c-0.009,2.309 0.791,4.549 2.26,6.33l-2,2c-0.283,0.287 -0.366,0.718 -0.21,1.09c0.17,0.367 0.546,0.597 0.95,0.58l9,0c5.486,0 10,-4.514 10,-10c0,-5.486 -4.514,-10 -10,-10Zm0,18l-6.59,0l0.93,-0.93c0.385,-0.387 0.385,-1.023 0,-1.41c-1.502,-1.5 -2.346,-3.538 -2.346,-5.66c0,-4.389 3.611,-8 8,-8c4.388,0 8,3.611 8,8c0,4.386 -3.608,7.997 -7.994,8Z" style="fill-rule:nonzero"/>
</svg>
