<?xml version="1.0" encoding="UTF-8" standalone="no"?><!DOCTYPE svg PUBLIC "-//W3C//DTD SVG 1.1//EN" "http://www.w3.org/Graphics/SVG/1.1/DTD/svg11.dtd"><svg width="100%" height="100%" viewBox="0 0 47 45" version="1.1" xmlns="http://www.w3.org/2000/svg" xmlns:xlink="http://www.w3.org/1999/xlink" xml:space="preserve" xmlns:serif="http://www.serif.com/" style="fill-rule:evenodd;clip-rule:evenodd;stroke-linecap:round;stroke-linejoin:round;stroke-miterlimit:1.5;"><g id="Layer1"><path d="M23.434,7.933l0.448,12.992l-15.498,-1.325l14.039,3.997l-7.949,12.281l8.959,-11.025l9.485,12.553l-8.4,-14.04l12.519,-3.718l-11.162,0.943l-2.441,-12.658Z" style="fill:none;stroke:#f5f05c;stroke-width:9.5px;"/></g><path d="M1.456,20.68l10.35,7.5l-3.975,12.15c-0.44,1.413 0.075,2.959 1.275,3.825c0.559,0.432 1.244,0.67 1.95,0.675c0.731,0.006 1.444,-0.232 2.025,-0.675l10.35,-7.5l10.35,7.5c1.173,0.885 2.803,0.885 3.975,0c1.201,-0.866 1.716,-2.412 1.275,-3.825l-3.975,-12.15l10.35,-7.5c0.912,-0.63 1.457,-1.669 1.457,-2.777c0,-1.851 -1.524,-3.375 -3.375,-3.375c-0.036,0 -0.071,0.001 -0.107,0.002l-12.75,0l-3.975,-12.15c-0.435,-1.411 -1.748,-2.38 -3.225,-2.38c-1.476,0 -2.789,0.969 -3.225,2.38l-3.975,12.15l-12.75,0c-0.035,-0.001 -0.07,-0.002 -0.106,-0.002c-1.851,0 -3.375,1.524 -3.375,3.375c0,1.108 0.545,2.147 1.456,2.777Zm15.45,-1.875c1.47,0.032 2.792,-0.921 3.225,-2.325l3.3,-10.125l3.3,10.125c0.434,1.404 1.756,2.357 3.225,2.325l10.65,0l-8.625,6.3c-1.18,0.846 -1.669,2.376 -1.2,3.75l3.3,10.125l-8.625,-6.225c-1.196,-0.897 -2.853,-0.897 -4.05,0l-8.625,6.225l3.3,-10.125c0.47,-1.374 -0.019,-2.904 -1.2,-3.75l-8.625,-6.3l10.65,0Z" style="fill-rule:nonzero;"/></svg>