<svg viewBox="0 0 336 868" xmlns:xlink="http://www.w3.org/1999/xlink" xmlns="http://www.w3.org/2000/svg" fill-rule="evenodd" clip-rule="evenodd" stroke-linejoin="round" stroke-miterlimit="2"><defs><path id="front-shadow" d="M211 84H14v14h28v14h28V98h27.991L98 112h28l.009-14h27.909l.082 14h28V98h29V84z" fill="#455373"/><path id="front-stripe" fill="#6c87c7" d="M0 56h224v28H0z"/><path id="side-stripe" fill="#4b6299" d="M224 56h112v28H224z"/><g id="window"><path fill="#f5c322" d="M238 84h14v14h-14z"/><path fill="#fddf7c" d="M238 98h14v14h-14z"/></g></defs><path fill="#5e6b88" d="M20 60h191v808H20z" transform="matrix(1.04188 0 0 1.00495 -6.838 -4.297)" id="front"/><g id="front-shadows"><use xlink:href="#front-shadow"/><use xlink:href="#front-shadow" transform="translate(0 56)"/><use xlink:href="#front-shadow" transform="translate(0 112)"/><use xlink:href="#front-shadow" transform="translate(0 168)"/><use xlink:href="#front-shadow" transform="translate(0 224)"/><use xlink:href="#front-shadow" transform="translate(0 280)"/><use xlink:href="#front-shadow" transform="translate(0 336)"/><use xlink:href="#front-shadow" transform="translate(0 392)"/><use xlink:href="#front-shadow" transform="translate(0 448)"/><use xlink:href="#front-shadow" transform="translate(0 504)"/><use xlink:href="#front-shadow" transform="translate(0 561)"/><use xlink:href="#front-shadow" transform="translate(0 616)"/><use xlink:href="#front-shadow" transform="translate(0 672)"/><use xlink:href="#front-shadow" transform="translate(0 728)"/></g><path fill="#303b55" d="M211 85h108v785H211z" transform="matrix(1.02778 0 0 .99873 -5.861 -.892)" id="side-shadow"/><g id="top"><path fill="#aabae0" d="M14 42h210v14H14z" transform="matrix(1 0 0 1.14286 0 -6)"/><path fill="#687697" d="M224 42h98v14h-98z" transform="matrix(1 0 0 1.21429 0 -9)"/><path fill="#5e6b88" d="M238 14h28v28h-28z"/><path fill="#303b55" d="M266 14h28v28h-28z"/><path d="M154 14h28v14h-14v14h-28V28h14V14z" fill="#5e6b88"/><path d="M42 0v42h14V14h14v28h14V0H42z" fill="#5e6b88"/><path d="M84 0v42h28V14H98V0H84z" fill="#303b55"/><path fill="#303b55" d="M56 14h14v28H56z"/><path d="M168 42V28h14V14h14v14h14v14h-42z" fill="#303b55"/></g><g id="front-stripes"><use xlink:href="#front-stripe"/><use xlink:href="#front-stripe" transform="translate(0 56)"/><use xlink:href="#front-stripe" transform="translate(0 112)"/><use xlink:href="#front-stripe" transform="translate(0 168)"/><use xlink:href="#front-stripe" transform="translate(0 224)"/><use xlink:href="#front-stripe" transform="translate(0 280)"/><use xlink:href="#front-stripe" transform="translate(0 336)"/><use xlink:href="#front-stripe" transform="translate(0 392)"/><use xlink:href="#front-stripe" transform="translate(0 448)"/><use xlink:href="#front-stripe" transform="translate(0 504)"/><use xlink:href="#front-stripe" transform="translate(0 560)"/><use xlink:href="#front-stripe" transform="translate(0 616)"/><use xlink:href="#front-stripe" transform="translate(0 672)"/><use xlink:href="#front-stripe" transform="translate(0 728)"/><use xlink:href="#front-stripe" transform="translate(0 784)"/></g><g id="side-stripes"><use xlink:href="#side-stripe"/><use xlink:href="#side-stripe" transform="translate(0 56)"/><use xlink:href="#side-stripe" transform="translate(0 112)"/><use xlink:href="#side-stripe" transform="translate(0 168)"/><use xlink:href="#side-stripe" transform="translate(0 224)"/><use xlink:href="#side-stripe" transform="translate(0 280)"/><use xlink:href="#side-stripe" transform="translate(0 336)"/><use xlink:href="#side-stripe" transform="translate(0 392)"/><use xlink:href="#side-stripe" transform="translate(0 448)"/><use xlink:href="#side-stripe" transform="translate(0 504)"/><use xlink:href="#side-stripe" transform="translate(0 560)"/><use xlink:href="#side-stripe" transform="translate(0 616)"/><use xlink:href="#side-stripe" transform="translate(0 672)"/><use xlink:href="#side-stripe" transform="translate(0 728)"/><use xlink:href="#side-stripe" transform="translate(0 784)"/></g><g id="side-windows"><use xlink:href="#window"/><use xlink:href="#window" transform="translate(28)"/><use xlink:href="#window" transform="translate(28 112)"/><use xlink:href="#window" transform="translate(28 56)"/><use xlink:href="#window" transform="translate(56 56)"/><use xlink:href="#window" transform="translate(0 56)"/><use xlink:href="#window" transform="translate(0 168)"/><use xlink:href="#window" transform="translate(56 224)"/><use xlink:href="#window" transform="translate(56 280)"/><use xlink:href="#window" transform="translate(28 280)"/><use xlink:href="#window" transform="translate(0 336)"/><use xlink:href="#window" transform="translate(28 448)"/><use xlink:href="#window" transform="translate(28 504)"/><use xlink:href="#window" transform="translate(28 616)"/><use xlink:href="#window" transform="translate(56 616)"/><use xlink:href="#window" transform="translate(0 616)"/><use xlink:href="#window" transform="translate(28 672)"/><use xlink:href="#window" transform="translate(0 448)"/></g><g id="front-windows"><use xlink:href="#window" transform="matrix(2 0 0 1 -378 0)"/><use xlink:href="#window" transform="matrix(2 0 0 1 -378 168)"/><use xlink:href="#window" transform="matrix(2 0 0 1 -434 168)"/><use xlink:href="#window" transform="matrix(2 0 0 1 -434 56)"/><use xlink:href="#window" transform="matrix(2 0 0 1 -378 280)"/><use xlink:href="#window" transform="matrix(2 0 0 1 -322 336)"/><use xlink:href="#window" transform="matrix(2 0 0 1 -322 448)"/><use xlink:href="#window" transform="matrix(2 0 0 1 -434 449)"/><use xlink:href="#window" transform="matrix(2 0 0 1 -378 616)"/><use xlink:href="#window" transform="matrix(2 0 0 1 -322 616)"/><use xlink:href="#window" transform="matrix(2 0 0 1 -378 56)"/><use xlink:href="#window" transform="matrix(2 0 0 1 -434 672)"/><use xlink:href="#window" transform="matrix(2 0 0 1 -322 56)"/></g></svg>