<svg viewBox="0 0 324 720" xmlns="http://www.w3.org/2000/svg" xmlns:xlink="http://www.w3.org/1999/xlink"
  fill-rule="evenodd" clip-rule="evenodd" stroke-linejoin="round" stroke-miterlimit="2">
  <defs>
    <path fill="#7b6ec5" d="M23 49h25v671H23z" id="front-stripe" />
    <path fill="#5d587c" d="M229 48h11v170h-11z" id="side-stripe" />
    <path fill="#403b64" d="M23 96h24v23H23z" id="dark-window-side" />
    <path fill="#5d587c" d="M23 96h24v23H23z" id="dark-window-front" />
    <g id="window">
      <path fill="#d0991f" d="M24 48h23v12H24z" />
      <path fill="#f2ca71" d="M24 48h23v12H24z" transform="translate(0 12)" />
    </g>
  </defs>
  <path fill="#ac9dff" d="M13-6h168v27H13z" transform="matrix(1.23214 0 0 .51852 -4.018 3.111)" id="top-front" />
  <path id="top-side" fill="#7b6ec5" d="M216 0h96v13h-96z" />
  <path id="side" fill="#6352c1" d="M214 12h110v708H214z" />
  <path fill="#8d78ff" d="M4 13h213v705H4z" transform="matrix(1.01408 0 0 1.00426 -4.056 -1.055)" id="front" />
  <g id="front-stripes">
    <use xlink:href="#front-stripe" transform="matrix(.96 0 0 1.00149 145.92 -1.073)" />
    <use xlink:href="#front-stripe" transform="matrix(.96 0 0 1.00149 97.92 -1.073)" />
    <use xlink:href="#front-stripe" transform="matrix(.96 0 0 1.00149 49.92 -1.073)" />
    <use xlink:href="#front-stripe" transform="matrix(.96 0 0 1.00149 1.92 -1.073)" />
  </g>
  <g id="side-stripes">
    <use xlink:href="#side-stripe" transform="matrix(1.09091 0 0 3.94706 -21.818 -141.459)" />
    <use xlink:href="#side-stripe" transform="matrix(1.09091 0 0 3.94706 2.182 -141.459)" />
    <use xlink:href="#side-stripe" transform="matrix(1.09091 0 0 3.94706 26.182 -141.459)" />
    <use xlink:href="#side-stripe" transform="matrix(1.09091 0 0 3.94706 50.182 -141.459)" />
  </g>
  <g id="front-windows">
    <use xlink:href="#window" transform="matrix(1.04348 0 0 1 46.957 240)" />
    <use xlink:href="#window" transform="matrix(1.04348 0 0 1 94.957 240)" />
    <use xlink:href="#window" transform="matrix(1.04348 0 0 1 94.957 288)" />
    <use xlink:href="#window" transform="matrix(1.04348 0 0 1 142.957 288)" />
    <use xlink:href="#window" transform="matrix(1.04348 0 0 1 46.957 288)" />
    <use xlink:href="#window" transform="matrix(1.04348 0 0 1 -1.043 288)" />
    <use xlink:href="#window" transform="matrix(1.04348 0 0 1 -1.043 384)" />
    <use xlink:href="#window" transform="matrix(1.04348 0 0 1 142.957 384)" />
    <use xlink:href="#window" transform="matrix(1.04348 0 0 1 142.957 336)" />
    <use xlink:href="#window" transform="matrix(1.04348 0 0 1 46.957 432)" />
    <use xlink:href="#window" transform="matrix(1.04348 0 0 1 -1.043 432)" />
    <use xlink:href="#window" transform="matrix(1.04348 0 0 1 -1.043 528)" />
    <use xlink:href="#window" transform="matrix(1.04348 0 0 1 142.957 528)" />
    <use xlink:href="#window" transform="matrix(1.04348 0 0 1 94.957 576)" />
    <use xlink:href="#window" transform="matrix(1.04348 0 0 1 -1.043 576)" />
    <use xlink:href="#window" transform="matrix(1.04348 0 0 1 46.957 624)" />
    <use xlink:href="#window" transform="matrix(1.04348 0 0 1 94.957 624)" />
    <use xlink:href="#window" transform="matrix(1.04348 0 0 1 -1.043 192)" />
    <use xlink:href="#window" transform="matrix(1.04348 0 0 1 142.957 192)" />
    <use xlink:href="#window" transform="matrix(1.04348 0 0 1 94.957 48)" />
    <use xlink:href="#window" transform="matrix(1.04348 0 0 1 94.957 96)" />
    <use xlink:href="#window" transform="matrix(1.04348 0 0 1 46.957 96)" />
    <use xlink:href="#window" transform="matrix(1.04348 0 0 1 -1.043 96)" />
    <use xlink:href="#window" transform="matrix(1.04348 0 0 1 46.957 0)" />
    <use xlink:href="#window" transform="matrix(1.04348 0 0 1 -1.043 0)" />
  </g>
  <g id="side-windows">
    <use xlink:href="#window" transform="matrix(.52174 0 0 1 287.478 288)" />
    <use xlink:href="#window" transform="matrix(.52174 0 0 1 263.478 288)" />
    <use xlink:href="#window" transform="matrix(.52174 0 0 1 239.478 288)" />
    <use xlink:href="#window" transform="matrix(.52174 0 0 1 215.478 288)" />
    <use xlink:href="#window" transform="matrix(.52174 0 0 1 215.478 336)" />
    <use xlink:href="#window" transform="matrix(.52174 0 0 1 215.478 384)" />
    <use xlink:href="#window" transform="matrix(.52174 0 0 1 239.478 432)" />
    <use xlink:href="#window" transform="matrix(.52174 0 0 1 239.478 0)" />
    <use xlink:href="#window" transform="matrix(.52174 0 0 1 287.478 48)" />
    <use xlink:href="#window" transform="matrix(.52174 0 0 1 215.478 48)" />
    <use xlink:href="#window" transform="matrix(.52174 0 0 1 239.478 96)" />
    <use xlink:href="#window" transform="matrix(.52174 0 0 1 263.478 96)" />
    <use xlink:href="#window" transform="matrix(.52174 0 0 1 263.478 192)" />
    <use xlink:href="#window" transform="matrix(.52174 0 0 1 287.478 192)" />
    <use xlink:href="#window" transform="matrix(.52174 0 0 1 215.478 192)" />
    <use xlink:href="#window" transform="matrix(.52174 0 0 1 215.478 528)" />
    <use xlink:href="#window" transform="matrix(.52174 0 0 1 215.478 576)" />
    <use xlink:href="#window" transform="matrix(.52174 0 0 1 239.478 624)" />
    <use xlink:href="#window" transform="matrix(.52174 0 0 1 287.478 624)" />
  </g>
  <g id="dark-windows-front">
    <use xlink:href="#dark-window-front" transform="matrix(1 0 0 1.04348 1 -4.174)" />
    <use xlink:href="#dark-window-front" transform="matrix(1 0 0 1.04348 49 -4.174)" />
    <use xlink:href="#dark-window-front" transform="matrix(1 0 0 1.04348 97 -52.174)" />
    <use xlink:href="#dark-window-front" transform="matrix(1 0 0 1.04348 145 -52.174)" />
    <use xlink:href="#dark-window-front" transform="matrix(1 0 0 1.04348 145 -4.174)" />
    <use xlink:href="#dark-window-front" transform="matrix(1 0 0 1.04348 145 43.826)" />
    <use xlink:href="#dark-window-front" transform="matrix(1 0 0 1.04348 145 91.826)" />
    <use xlink:href="#dark-window-front" transform="matrix(1 0 0 1.04348 97 139.826)" />
    <use xlink:href="#dark-window-front" transform="matrix(1 0 0 1.04348 145 187.826)" />
    <use xlink:href="#dark-window-front" transform="matrix(1 0 0 1.04348 1 187.826)" />
    <use xlink:href="#dark-window-front" transform="matrix(1 0 0 1.04348 1 283.826)" />
    <use xlink:href="#dark-window-front" transform="matrix(1 0 0 1.04348 49 283.826)" />
    <use xlink:href="#dark-window-front" transform="matrix(1 0 0 1.04348 97 283.826)" />
    <use xlink:href="#dark-window-front" transform="matrix(1 0 0 1.04348 97 331.826)" />
    <use xlink:href="#dark-window-front" transform="matrix(1 0 0 1.04348 49 331.826)" />
    <use xlink:href="#dark-window-front" transform="matrix(1 0 0 1.04348 97 379.826)" />
    <use xlink:href="#dark-window-front" transform="matrix(1 0 0 1.04348 145 379.826)" />
    <use xlink:href="#dark-window-front" transform="matrix(1 0 0 1.04348 145 427.826)" />
    <use xlink:href="#dark-window-front" transform="matrix(1 0 0 1.04348 97 427.826)" />
    <use xlink:href="#dark-window-front" transform="matrix(1 0 0 1.04348 49 427.826)" />
    <use xlink:href="#dark-window-front" transform="matrix(1 0 0 1.04348 1 427.826)" />
    <use xlink:href="#dark-window-front" transform="matrix(1 0 0 1.04348 49 475.826)" />
    <use xlink:href="#dark-window-front" transform="matrix(1 0 0 1.04348 97 475.826)" />
    <use xlink:href="#dark-window-front" transform="matrix(1 0 0 1.04348 49 523.826)" />
    <use xlink:href="#dark-window-front" transform="matrix(1 0 0 1.04348 145 523.826)" />
    <use xlink:href="#dark-window-front" transform="matrix(1 0 0 1.04348 145 571.826)" />
    <use xlink:href="#dark-window-front" transform="matrix(1 0 0 1.04348 1 571.826)" />
    <use xlink:href="#dark-window-front" transform="matrix(1 0 0 1.04348 97 91.826)" />
    <use xlink:href="#dark-window-front" transform="matrix(1 0 0 1.04348 49 91.826)" />
    <use xlink:href="#dark-window-front" transform="matrix(1 0 0 1.04348 1 91.826)" />
    <use xlink:href="#dark-window-front" transform="matrix(1 0 0 1.04348 49 139.826)" />
  </g>
  <g id="dark-windows-side">
    <use xlink:href="#dark-window-side" transform="matrix(.5 0 0 1.04348 240.5 91.826)" />
    <use xlink:href="#dark-window-side" transform="matrix(.5 0 0 1.04348 240.5 139.826)" />
    <use xlink:href="#dark-window-side" transform="matrix(.5 0 0 1.04348 216.5 -52.174)" />
    <use xlink:href="#dark-window-side" transform="matrix(.5 0 0 1.04348 264.5 -52.174)" />
    <use xlink:href="#dark-window-side" transform="matrix(.5 0 0 1.04348 288.5 -52.174)" />
    <use xlink:href="#dark-window-side" transform="matrix(.5 0 0 1.04348 264.5 -4.174)" />
    <use xlink:href="#dark-window-side" transform="matrix(.5 0 0 1.04348 240.5 -4.174)" />
    <use xlink:href="#dark-window-side" transform="matrix(.5 0 0 1.04348 216.5 43.826)" />
    <use xlink:href="#dark-window-side" transform="matrix(.5 0 0 1.04348 288.5 43.826)" />
    <use xlink:href="#dark-window-side" transform="matrix(.5 0 0 1.04348 288.5 91.826)" />
    <use xlink:href="#dark-window-side" transform="matrix(.5 0 0 1.04348 264.5 91.826)" />
    <use xlink:href="#dark-window-side" transform="matrix(.5 0 0 1.04348 216.5 91.826)" />
    <use xlink:href="#dark-window-side" transform="matrix(.5 0 0 1.04348 216.5 187.826)" />
    <use xlink:href="#dark-window-side" transform="matrix(.5 0 0 1.04348 240.5 187.826)" />
    <use xlink:href="#dark-window-side" transform="matrix(.5 0 0 1.04348 264.5 187.826)" />
    <use xlink:href="#dark-window-side" transform="matrix(.5 0 0 1.04348 288.5 187.826)" />
    <use xlink:href="#dark-window-side" transform="matrix(.5 0 0 1.04348 240.5 283.826)" />
    <use xlink:href="#dark-window-side" transform="matrix(.5 0 0 1.04348 264.5 283.826)" />
    <use xlink:href="#dark-window-side" transform="matrix(.5 0 0 1.04348 288.5 283.826)" />
    <use xlink:href="#dark-window-side" transform="matrix(.5 0 0 1.04348 240.5 331.826)" />
    <use xlink:href="#dark-window-side" transform="matrix(.5 0 0 1.04348 264.5 331.826)" />
    <use xlink:href="#dark-window-side" transform="matrix(.5 0 0 1.04348 288.5 331.826)" />
    <use xlink:href="#dark-window-side" transform="matrix(.5 0 0 1.04348 288.5 379.826)" />
    <use xlink:href="#dark-window-side" transform="matrix(.5 0 0 1.04348 264.5 379.826)" />
    <use xlink:href="#dark-window-side" transform="matrix(.5 0 0 1.04348 216.5 379.826)" />
    <use xlink:href="#dark-window-side" transform="matrix(.5 0 0 1.04348 216.5 427.826)" />
    <use xlink:href="#dark-window-side" transform="matrix(.5 0 0 1.04348 240.5 427.826)" />
    <use xlink:href="#dark-window-side" transform="matrix(.5 0 0 1.04348 264.5 427.826)" />
    <use xlink:href="#dark-window-side" transform="matrix(.5 0 0 1.04348 288.5 427.826)" />
    <use xlink:href="#dark-window-side" transform="matrix(.5 0 0 1.04348 240.5 475.826)" />
    <use xlink:href="#dark-window-side" transform="matrix(.5 0 0 1.04348 264.5 475.826)" />
    <use xlink:href="#dark-window-side" transform="matrix(.5 0 0 1.04348 288.5 475.826)" />
    <use xlink:href="#dark-window-side" transform="matrix(.5 0 0 1.04348 240.5 523.826)" />
    <use xlink:href="#dark-window-side" transform="matrix(.5 0 0 1.04348 264.5 523.826)" />
    <use xlink:href="#dark-window-side" transform="matrix(.5 0 0 1.04348 288.5 523.826)" />
    <use xlink:href="#dark-window-side" transform="matrix(.5 0 0 1.04348 264.5 571.826)" />
    <use xlink:href="#dark-window-side" transform="matrix(.5 0 0 1.04348 216.5 571.826)" />
  </g>
</svg>