<?xml version="1.0" encoding="UTF-8" standalone="no"?>
<!DOCTYPE svg PUBLIC "-//W3C//DTD SVG 1.1//EN" "http://www.w3.org/Graphics/SVG/1.1/DTD/svg11.dtd">
<svg width="100%" height="100%" viewBox="0 0 16 16" version="1.1" xmlns="http://www.w3.org/2000/svg" xmlns:xlink="http://www.w3.org/1999/xlink" xml:space="preserve" xmlns:serif="http://www.serif.com/" style="fill-rule:evenodd;clip-rule:evenodd;stroke-linejoin:round;stroke-miterlimit:2;">
    <g id="Page-1">
        <g id="exclamationmark.circle">
            <g>
                <path id="Shape" d="M8,16C12.418,16 16,12.418 16,8C16,3.582 12.418,0 8,0C3.582,0 0,3.582 0,8C0,12.418 3.582,16 8,16ZM8,8.8C7.558,8.8 7.2,8.442 7.2,8L7.2,4.8C7.2,4.358 7.558,4 8,4C8.442,4 8.8,4.358 8.8,4.8L8.8,8C8.8,8.442 8.442,8.8 8,8.8ZM8,10.4C8.442,10.4 8.8,10.758 8.8,11.2C8.8,11.642 8.442,12 8,12C7.558,12 7.2,11.642 7.2,11.2C7.2,10.758 7.558,10.4 8,10.4Z" style="fill:rgb(216,202,109);"/>
            </g>
        </g>
    </g>
</svg>
