<svg viewBox="0 0 142 480" xmlns="http://www.w3.org/2000/svg" xmlns:xlink="http://www.w3.org/1999/xlink" fill-rule="evenodd" clip-rule="evenodd" stroke-linejoin="round" stroke-miterlimit="2"><defs><path id="window" d="M37 123h26v16H37z"/></defs><path fill="#3f2357" d="M80 80h163v410H80z" transform="matrix(.71 0 0 1.17073 -56.8 -93.659)" id="face"/><path d="M194 90l37 40v370h-38l1-410z" fill="#291939" transform="matrix(.71 0 0 1.17073 -22.01 -105.366)" id="shadow"/><g id="windows-14"><use xlink:href="#window" fill="#f3e187" transform="matrix(.31654 0 0 1.13947 47.194 -123.156)"/><use xlink:href="#window" fill="#4d4d4d" transform="matrix(.31654 0 0 1.13947 57.837 -123.156)"/><use xlink:href="#window" fill="#f3e187" transform="matrix(.31654 0 0 1.13947 68.49 -123.156)"/><use xlink:href="#window" fill="#f3e187" transform="matrix(.31654 0 0 1.13947 79.134 -123.156)"/><use xlink:href="#window" fill="#f3e187" transform="matrix(.31654 0 0 1.13947 89.788 -123.156)"/><use xlink:href="#window" fill="#4d4d4d" transform="matrix(.31654 0 0 1.13947 -5.671 -123.156)"/><use xlink:href="#window" fill="#f3e187" transform="matrix(.31654 0 0 1.13947 4.972 -123.156)"/><use xlink:href="#window" fill="#4d4d4d" transform="matrix(.31654 0 0 1.13947 15.626 -123.156)"/><use xlink:href="#window" fill="#f3e187" transform="matrix(.31654 0 0 1.13947 26.27 -123.156)"/><use xlink:href="#window" fill="#f3e187" transform="matrix(.31654 0 0 1.13947 36.923 -123.156)"/></g><g id="windows-13"><use xlink:href="#window" fill="#4d4d4d" transform="matrix(.31654 0 0 1.13947 47.194 -93.53)"/><use xlink:href="#window" fill="#4d4d4d" transform="matrix(.31654 0 0 1.13947 57.837 -93.53)"/><use xlink:href="#window" fill="#4d4d4d" transform="matrix(.31654 0 0 1.13947 68.49 -93.53)"/><use xlink:href="#window" fill="#f3e187" transform="matrix(.31654 0 0 1.13947 79.134 -93.53)"/><use xlink:href="#window" fill="#f3e187" transform="matrix(.31654 0 0 1.13947 89.788 -93.53)"/><use xlink:href="#window" fill="#f3e187" transform="matrix(.31654 0 0 1.13947 -5.671 -93.53)"/><use xlink:href="#window" fill="#f3e187" transform="matrix(.31654 0 0 1.13947 4.972 -93.53)"/><use xlink:href="#window" fill="#f3e187" transform="matrix(.31654 0 0 1.13947 15.626 -93.53)"/><use xlink:href="#window" fill="#f3e187" transform="matrix(.31654 0 0 1.13947 26.27 -93.53)"/><use xlink:href="#window" fill="#f3e187" transform="matrix(.31654 0 0 1.13947 36.923 -93.53)"/></g><g id="windows-12"><use xlink:href="#window" fill="#4d4d4d" transform="matrix(.31654 0 0 1.13947 47.194 -63.903)"/><use xlink:href="#window" fill="#f3e187" transform="matrix(.31654 0 0 1.13947 57.837 -63.903)"/><use xlink:href="#window" fill="#f3e187" transform="matrix(.31654 0 0 1.13947 68.49 -63.903)"/><use xlink:href="#window" fill="#f3e187" transform="matrix(.31654 0 0 1.13947 79.134 -63.903)"/><use xlink:href="#window" fill="#f3e187" transform="matrix(.31654 0 0 1.13947 89.788 -63.903)"/><use xlink:href="#window" fill="#f3e187" transform="matrix(.31654 0 0 1.13947 -5.671 -63.903)"/><use xlink:href="#window" fill="#f3e187" transform="matrix(.31654 0 0 1.13947 4.972 -63.903)"/><use xlink:href="#window" fill="#4d4d4d" transform="matrix(.31654 0 0 1.13947 15.626 -63.903)"/><use xlink:href="#window" fill="#f3e187" transform="matrix(.31654 0 0 1.13947 26.27 -63.903)"/><use xlink:href="#window" fill="#f3e187" transform="matrix(.31654 0 0 1.13947 36.923 -63.903)"/></g><g id="windows-11"><use xlink:href="#window" fill="#4d4d4d" transform="matrix(.31654 0 0 1.13947 47.194 -34.277)"/><use xlink:href="#window" fill="#f3e187" transform="matrix(.31654 0 0 1.13947 57.837 -34.277)"/><use xlink:href="#window" fill="#4d4d4d" transform="matrix(.31654 0 0 1.13947 68.49 -34.277)"/><use xlink:href="#window" fill="#4d4d4d" transform="matrix(.31654 0 0 1.13947 79.134 -34.277)"/><use xlink:href="#window" fill="#f3e187" transform="matrix(.31654 0 0 1.13947 89.788 -34.277)"/><use xlink:href="#window" fill="#4d4d4d" transform="matrix(.31654 0 0 1.13947 -5.671 -34.277)"/><use xlink:href="#window" fill="#f3e187" transform="matrix(.31654 0 0 1.13947 4.972 -34.277)"/><use xlink:href="#window" fill="#f3e187" transform="matrix(.31654 0 0 1.13947 15.626 -34.277)"/><use xlink:href="#window" fill="#4d4d4d" transform="matrix(.31654 0 0 1.13947 26.27 -34.277)"/><use xlink:href="#window" fill="#f3e187" transform="matrix(.31654 0 0 1.13947 36.923 -34.277)"/></g><g id="windows-10"><use xlink:href="#window" fill="#f3e187" transform="matrix(.31654 0 0 1.13947 47.194 -4.65)"/><use xlink:href="#window" fill="#f3e187" transform="matrix(.31654 0 0 1.13947 57.837 -4.65)"/><use xlink:href="#window" fill="#4d4d4d" transform="matrix(.31654 0 0 1.13947 68.49 -4.65)"/><use xlink:href="#window" fill="#f3e187" transform="matrix(.31654 0 0 1.13947 79.134 -4.65)"/><use xlink:href="#window" fill="#f3e187" transform="matrix(.31654 0 0 1.13947 89.788 -4.65)"/><use xlink:href="#window" fill="#f3e187" transform="matrix(.31654 0 0 1.13947 -5.671 -4.65)"/><use xlink:href="#window" fill="#f3e187" transform="matrix(.31654 0 0 1.13947 4.972 -4.65)"/><use xlink:href="#window" fill="#f3e187" transform="matrix(.31654 0 0 1.13947 15.626 -4.65)"/><use xlink:href="#window" fill="#f3e187" transform="matrix(.31654 0 0 1.13947 26.27 -4.65)"/><use xlink:href="#window" fill="#f3e187" transform="matrix(.31654 0 0 1.13947 36.923 -4.65)"/></g><g id="windows-9"><use xlink:href="#window" fill="#f3e187" transform="matrix(.31654 0 0 1.13947 47.194 24.975)"/><use xlink:href="#window" fill="#f3e187" transform="matrix(.31654 0 0 1.13947 57.837 24.975)"/><use xlink:href="#window" fill="#4d4d4d" transform="matrix(.31654 0 0 1.13947 68.49 24.975)"/><use xlink:href="#window" fill="#4d4d4d" transform="matrix(.31654 0 0 1.13947 79.134 24.975)"/><use xlink:href="#window" fill="#4d4d4d" transform="matrix(.31654 0 0 1.13947 89.788 24.975)"/><use xlink:href="#window" fill="#4d4d4d" transform="matrix(.31654 0 0 1.13947 -5.671 24.975)"/><use xlink:href="#window" fill="#4d4d4d" transform="matrix(.31654 0 0 1.13947 4.972 24.975)"/><use xlink:href="#window" fill="#f3e187" transform="matrix(.31654 0 0 1.13947 15.626 24.975)"/><use xlink:href="#window" fill="#f3e187" transform="matrix(.31654 0 0 1.13947 26.27 24.975)"/><use xlink:href="#window" fill="#f3e187" transform="matrix(.31654 0 0 1.13947 36.923 24.975)"/></g><g id="windows-8"><use xlink:href="#window" fill="#f3e187" transform="matrix(.31654 0 0 1.13947 47.194 54.602)"/><use xlink:href="#window" fill="#4d4d4d" transform="matrix(.31654 0 0 1.13947 57.837 54.602)"/><use xlink:href="#window" fill="#f3e187" transform="matrix(.31654 0 0 1.13947 68.49 54.602)"/><use xlink:href="#window" fill="#f3e187" transform="matrix(.31654 0 0 1.13947 79.134 54.602)"/><use xlink:href="#window" fill="#4d4d4d" transform="matrix(.31654 0 0 1.13947 89.788 54.602)"/><use xlink:href="#window" fill="#f3e187" transform="matrix(.31654 0 0 1.13947 -5.671 54.602)"/><use xlink:href="#window" fill="#f3e187" transform="matrix(.31654 0 0 1.13947 4.972 54.602)"/><use xlink:href="#window" fill="#f3e187" transform="matrix(.31654 0 0 1.13947 15.626 54.602)"/><use xlink:href="#window" fill="#4d4d4d" transform="matrix(.31654 0 0 1.13947 26.27 54.602)"/><use xlink:href="#window" fill="#f3e187" transform="matrix(.31654 0 0 1.13947 36.923 54.602)"/></g><g id="windows-7"><use xlink:href="#window" fill="#4d4d4d" transform="matrix(.31654 0 0 1.13947 47.194 84.228)"/><use xlink:href="#window" fill="#4d4d4d" transform="matrix(.31654 0 0 1.13947 57.837 84.228)"/><use xlink:href="#window" fill="#4d4d4d" transform="matrix(.31654 0 0 1.13947 68.49 84.228)"/><use xlink:href="#window" fill="#4d4d4d" transform="matrix(.31654 0 0 1.13947 79.134 84.228)"/><use xlink:href="#window" fill="#4d4d4d" transform="matrix(.31654 0 0 1.13947 89.788 84.228)"/><use xlink:href="#window" fill="#4d4d4d" transform="matrix(.31654 0 0 1.13947 -5.671 84.228)"/><use xlink:href="#window" fill="#4d4d4d" transform="matrix(.31654 0 0 1.13947 4.972 84.228)"/><use xlink:href="#window" fill="#4d4d4d" transform="matrix(.31654 0 0 1.13947 15.626 84.228)"/><use xlink:href="#window" fill="#4d4d4d" transform="matrix(.31654 0 0 1.13947 26.27 84.228)"/><use xlink:href="#window" fill="#4d4d4d" transform="matrix(.31654 0 0 1.13947 36.923 84.228)"/></g><g id="window-6"><use xlink:href="#window" fill="#f3e187" transform="matrix(.31654 0 0 1.13947 47.194 113.854)"/><use xlink:href="#window" fill="#f3e187" transform="matrix(.31654 0 0 1.13947 57.837 113.854)"/><use xlink:href="#window" fill="#f3e187" transform="matrix(.31654 0 0 1.13947 68.49 113.854)"/><use xlink:href="#window" fill="#4d4d4d" transform="matrix(.31654 0 0 1.13947 79.134 113.854)"/><use xlink:href="#window" fill="#f3e187" transform="matrix(.31654 0 0 1.13947 89.788 113.854)"/><use xlink:href="#window" fill="#4d4d4d" transform="matrix(.31654 0 0 1.13947 -5.671 113.854)"/><use xlink:href="#window" fill="#f3e187" transform="matrix(.31654 0 0 1.13947 4.972 113.854)"/><use xlink:href="#window" fill="#f3e187" transform="matrix(.31654 0 0 1.13947 15.626 113.854)"/><use xlink:href="#window" fill="#f3e187" transform="matrix(.31654 0 0 1.13947 26.27 113.854)"/><use xlink:href="#window" fill="#4d4d4d" transform="matrix(.31654 0 0 1.13947 36.923 113.854)"/></g><g id="windows-5"><use xlink:href="#window" fill="#f3e187" transform="matrix(.31654 0 0 1.13947 47.194 143.48)"/><use xlink:href="#window" fill="#f3e187" transform="matrix(.31654 0 0 1.13947 57.837 143.48)"/><use xlink:href="#window" fill="#f3e187" transform="matrix(.31654 0 0 1.13947 68.49 143.48)"/><use xlink:href="#window" fill="#f3e187" transform="matrix(.31654 0 0 1.13947 79.134 143.48)"/><use xlink:href="#window" fill="#f3e187" transform="matrix(.31654 0 0 1.13947 89.788 143.48)"/><use xlink:href="#window" fill="#f3e187" transform="matrix(.31654 0 0 1.13947 -5.671 143.48)"/><use xlink:href="#window" fill="#f3e187" transform="matrix(.31654 0 0 1.13947 4.972 143.48)"/><use xlink:href="#window" fill="#f3e187" transform="matrix(.31654 0 0 1.13947 15.626 143.48)"/><use xlink:href="#window" fill="#f3e187" transform="matrix(.31654 0 0 1.13947 26.27 143.48)"/><use xlink:href="#window" fill="#f3e187" transform="matrix(.31654 0 0 1.13947 36.923 143.48)"/></g><g id="windows-4"><use xlink:href="#window" fill="#f3e187" transform="matrix(.31654 0 0 1.13947 47.194 173.107)"/><use xlink:href="#window" fill="#f3e187" transform="matrix(.31654 0 0 1.13947 57.837 173.107)"/><use xlink:href="#window" fill="#f3e187" transform="matrix(.31654 0 0 1.13947 68.49 173.107)"/><use xlink:href="#window" fill="#f3e187" transform="matrix(.31654 0 0 1.13947 79.134 173.107)"/><use xlink:href="#window" fill="#f3e187" transform="matrix(.31654 0 0 1.13947 89.788 173.107)"/><use xlink:href="#window" fill="#4d4d4d" transform="matrix(.31654 0 0 1.13947 -5.671 173.107)"/><use xlink:href="#window" fill="#4d4d4d" transform="matrix(.31654 0 0 1.13947 4.972 173.107)"/><use xlink:href="#window" fill="#f3e187" transform="matrix(.31654 0 0 1.13947 15.626 173.107)"/><use xlink:href="#window" fill="#f3e187" transform="matrix(.31654 0 0 1.13947 26.27 173.107)"/><use xlink:href="#window" fill="#4d4d4d" transform="matrix(.31654 0 0 1.13947 36.923 173.107)"/></g><g id="windows-3"><use xlink:href="#window" fill="#4d4d4d" transform="matrix(.31654 0 0 1.13947 47.194 202.733)"/><use xlink:href="#window" fill="#4d4d4d" transform="matrix(.31654 0 0 1.13947 57.837 202.733)"/><use xlink:href="#window" fill="#f3e187" transform="matrix(.31654 0 0 1.13947 68.49 202.733)"/><use xlink:href="#window" fill="#f3e187" transform="matrix(.31654 0 0 1.13947 79.134 202.733)"/><use xlink:href="#window" fill="#4d4d4d" transform="matrix(.31654 0 0 1.13947 89.788 202.733)"/><use xlink:href="#window" fill="#f3e187" transform="matrix(.31654 0 0 1.13947 -5.671 202.733)"/><use xlink:href="#window" fill="#f3e187" transform="matrix(.31654 0 0 1.13947 4.972 202.733)"/><use xlink:href="#window" fill="#4d4d4d" transform="matrix(.31654 0 0 1.13947 15.626 202.733)"/><use xlink:href="#window" fill="#f3e187" transform="matrix(.31654 0 0 1.13947 26.27 202.733)"/><use xlink:href="#window" fill="#f3e187" transform="matrix(.31654 0 0 1.13947 36.923 202.733)"/></g><g id="windows-2"><use xlink:href="#window" fill="#f3e187" transform="matrix(.31654 0 0 1.13947 47.153 232.359)"/><use xlink:href="#window" fill="#4d4d4d" transform="matrix(.31654 0 0 1.13947 57.796 232.359)"/><use xlink:href="#window" fill="#f3e187" transform="matrix(.31654 0 0 1.13947 68.45 232.359)"/><use xlink:href="#window" fill="#4d4d4d" transform="matrix(.31654 0 0 1.13947 79.094 232.359)"/><use xlink:href="#window" fill="#f3e187" transform="matrix(.31654 0 0 1.13947 89.748 232.359)"/><use xlink:href="#window" fill="#f3e187" transform="matrix(.31654 0 0 1.13947 -5.712 232.359)"/><use xlink:href="#window" fill="#f3e187" transform="matrix(.31654 0 0 1.13947 4.931 232.359)"/><use xlink:href="#window" fill="#4d4d4d" transform="matrix(.31654 0 0 1.13947 15.585 232.359)"/><use xlink:href="#window" fill="#4d4d4d" transform="matrix(.31654 0 0 1.13947 26.229 232.359)"/><use xlink:href="#window" fill="#f3e187" transform="matrix(.31654 0 0 1.13947 36.883 232.359)"/></g><g id="windows-1"><use xlink:href="#window" fill="#4d4d4d" transform="matrix(.31654 0 0 1.13947 47.153 261.985)"/><use xlink:href="#window" fill="#4d4d4d" transform="matrix(.31654 0 0 1.13947 57.796 261.985)"/><use xlink:href="#window" fill="#4d4d4d" transform="matrix(.31654 0 0 1.13947 68.45 261.985)"/><use xlink:href="#window" fill="#4d4d4d" transform="matrix(.31654 0 0 1.13947 79.094 261.985)"/><use xlink:href="#window" fill="#4d4d4d" transform="matrix(.31654 0 0 1.13947 89.748 261.985)"/><use xlink:href="#window" fill="#f3e187" transform="matrix(.31654 0 0 1.13947 -5.712 261.985)"/><use xlink:href="#window" fill="#f3e187" transform="matrix(.31654 0 0 1.13947 4.931 261.985)"/><use xlink:href="#window" fill="#f3e187" transform="matrix(.31654 0 0 1.13947 15.585 261.985)"/><use xlink:href="#window" fill="#f3e187" transform="matrix(.31654 0 0 1.13947 26.229 261.985)"/><use xlink:href="#window" fill="#f3e187" transform="matrix(.31654 0 0 1.13947 36.883 261.985)"/></g><g id="windows-0"><use xlink:href="#window" fill="#f3e187" transform="matrix(.31654 0 0 1.13947 47.153 291.611)"/><use xlink:href="#window" fill="#f3e187" transform="matrix(.31654 0 0 1.13947 57.796 291.611)"/><use xlink:href="#window" fill="#f3e187" transform="matrix(.31654 0 0 1.13947 68.45 291.611)"/><use xlink:href="#window" fill="#f3e187" transform="matrix(.31654 0 0 1.13947 79.094 291.611)"/><use xlink:href="#window" fill="#f3e187" transform="matrix(.31654 0 0 1.13947 89.748 291.611)"/><use xlink:href="#window" fill="#f3e187" transform="matrix(.31654 0 0 1.13947 -5.712 291.611)"/><use xlink:href="#window" fill="#f3e187" transform="matrix(.31654 0 0 1.13947 4.931 291.611)"/><use xlink:href="#window" fill="#f3e187" transform="matrix(.31654 0 0 1.13947 15.585 291.611)"/><use xlink:href="#window" fill="#f3e187" transform="matrix(.31654 0 0 1.13947 26.229 291.611)"/><use xlink:href="#window" fill="#f3e187" transform="matrix(.31654 0 0 1.13947 36.883 291.611)"/></g></svg>