<svg viewBox="0 0 24 24" xmlns="http://www.w3.org/2000/svg" xml:space="preserve" fill-rule="evenodd" clip-rule="evenodd"
  stroke-linecap="round" width="12" height="12" stroke-linejoin="round" stroke-miterlimit="1.5">
  <path
    d="M12.937 3.544c3.653 0 7.823 4.882 7.823 8.598 0 3.716-4.88 8.595-8.533 8.595-1.302 0-6.226.145-7.25-.516-.249-.161.808-2.219.584-2.41-1.448-1.236-2.13-6.041-2.13-8.112 0-3.715 5.852-6.155 9.506-6.155Z"
    fill="#fff" />
  <path d="m10.223 10.733 1.837 1.916 1.757-1.908" fill="none" stroke="#fa72d1" stroke-width="4" />
  <path
    d="M12 8.35a3.077 3.077 0 0 0-3.54.53 3.014 3.014 0 0 0 0 4.24L11.29 16a1.001 1.001 0 0 0 1.42 0l2.83-2.83a3.014 3.014 0 0 0 0-4.24A3.077 3.077 0 0 0 12 8.35Zm2.12 3.36L12 13.83l-2.12-2.12a1.001 1.001 0 0 1 0-1.42 1.005 1.005 0 0 1 1.41 0 1.001 1.001 0 0 0 1.42 0 1.001 1.001 0 0 1 1.41 1.42ZM12 2C6.514 2 2 6.514 2 12a9.89 9.89 0 0 0 2.26 6.33l-2 2a1.002 1.002 0 0 0-.21 1.09c.17.367.546.597.95.58h9c5.486 0 10-4.514 10-10S17.486 2 12 2Zm0 18H5.41l.93-.93a1.005 1.005 0 0 0 0-1.41A8.002 8.002 0 0 1 3.994 12c0-4.389 3.611-8 8-8 4.388 0 8 3.611 8 8 0 4.386-3.608 7.997-7.994 8Z"
    fill-rule="nonzero" />
</svg>