<?xml version="1.0" encoding="UTF-8" standalone="no"?><!DOCTYPE svg PUBLIC "-//W3C//DTD SVG 1.1//EN" "http://www.w3.org/Graphics/SVG/1.1/DTD/svg11.dtd"><svg width="100%" height="100%" viewBox="0 0 20 20" version="1.1" xmlns="http://www.w3.org/2000/svg" xmlns:xlink="http://www.w3.org/1999/xlink" xml:space="preserve" xmlns:serif="http://www.serif.com/" style="fill-rule:evenodd;clip-rule:evenodd;stroke-linecap:square;stroke-miterlimit:1.5;"><rect x="1.818" y="1.818" width="16.364" height="16.364" style="fill:#d0c7ff;"/><path d="M2,18l16,0l0,-16" style="fill:none;stroke:#000;stroke-width:1.2px;"/><path d="M18,2l-16,0l0,16" style="fill:none;stroke:#fff;stroke-width:1.17px;"/><g><path d="M13.636,8.785c0,-1.072 -0.898,-1.941 -2.005,-1.941c-0.673,-0 -1.267,0.321 -1.631,0.812c-0.364,-0.491 -0.958,-0.812 -1.631,-0.812c-1.107,-0 -2.005,0.869 -2.005,1.941c-0,0.153 0.02,0.3 0.054,0.442c0.278,1.677 2.202,3.444 3.582,3.929c1.378,-0.485 3.304,-2.254 3.582,-3.929c0.034,-0.142 0.054,-0.291 0.054,-0.442Z" style="fill-rule:nonzero;"/></g></svg>